<svg width="512" height="512" viewBox="0 0 512 512" fill="none" xmlns="http://www.w3.org/2000/svg">
  <!-- Background -->
  <rect width="512" height="512" rx="80" fill="url(#bgGradient)"/>
  
  <!-- Neural Network Nodes (Background Layer) -->
  <circle cx="140" cy="160" r="12" fill="#667eea" opacity="0.4"/>
  <circle cx="372" cy="160" r="12" fill="#667eea" opacity="0.4"/>
  <circle cx="100" cy="256" r="12" fill="#764ba2" opacity="0.4"/>
  <circle cx="412" cy="256" r="12" fill="#764ba2" opacity="0.4"/>
  <circle cx="140" cy="352" r="12" fill="#667eea" opacity="0.4"/>
  <circle cx="372" cy="352" r="12" fill="#667eea" opacity="0.4"/>
  
  <!-- Neural Connections -->
  <line x1="140" y1="160" x2="256" y2="210" stroke="#667eea" stroke-width="3" opacity="0.2" stroke-linecap="round"/>
  <line x1="372" y1="160" x2="256" y2="210" stroke="#667eea" stroke-width="3" opacity="0.2" stroke-linecap="round"/>
  <line x1="100" y1="256" x2="256" y2="256" stroke="#764ba2" stroke-width="3" opacity="0.2" stroke-linecap="round"/>
  <line x1="412" y1="256" x2="256" y2="256" stroke="#764ba2" stroke-width="3" opacity="0.2" stroke-linecap="round"/>
  <line x1="140" y1="352" x2="256" y2="302" stroke="#667eea" stroke-width="3" opacity="0.2" stroke-linecap="round"/>
  <line x1="372" y1="352" x2="256" y2="302" stroke="#667eea" stroke-width="3" opacity="0.2" stroke-linecap="round"/>
  
  <!-- Central Pillar (Justice) -->
  <line x1="256" y1="140" x2="256" y2="340" stroke="white" stroke-width="6" stroke-linecap="round"/>
  
  <!-- Balance Beam -->
  <line x1="170" y1="210" x2="342" y2="210" stroke="white" stroke-width="6" stroke-linecap="round"/>
  
  <!-- Left Scale -->
  <circle cx="190" cy="210" r="10" fill="none" stroke="#667eea" stroke-width="6"/>
  <line x1="190" y1="220" x2="190" y2="250" stroke="#667eea" stroke-width="6" stroke-linecap="round"/>
  <path d="M 150 250 Q 190 280 230 250" stroke="#667eea" stroke-width="6" fill="none" stroke-linecap="round" stroke-linejoin="round"/>
  <line x1="150" y1="250" x2="150" y2="265" stroke="#667eea" stroke-width="6" stroke-linecap="round"/>
  <line x1="230" y1="250" x2="230" y2="265" stroke="#667eea" stroke-width="6" stroke-linecap="round"/>
  <line x1="145" y1="265" x2="235" y2="265" stroke="#667eea" stroke-width="6" stroke-linecap="round"/>
  
  <!-- Right Scale -->
  <circle cx="322" cy="210" r="10" fill="none" stroke="#764ba2" stroke-width="6"/>
  <line x1="322" y1="220" x2="322" y2="250" stroke="#764ba2" stroke-width="6" stroke-linecap="round"/>
  <path d="M 282 250 Q 322 280 362 250" stroke="#764ba2" stroke-width="6" fill="none" stroke-linecap="round" stroke-linejoin="round"/>
  <line x1="282" y1="250" x2="282" y2="265" stroke="#764ba2" stroke-width="6" stroke-linecap="round"/>
  <line x1="362" y1="250" x2="362" y2="265" stroke="#764ba2" stroke-width="6" stroke-linecap="round"/>
  <line x1="277" y1="265" x2="367" y2="265" stroke="#764ba2" stroke-width="6" stroke-linecap="round"/>
  
  <!-- Base Platform -->
  <rect x="226" y="340" width="60" height="12" rx="6" fill="white"/>
  
  <!-- AI Neural Nodes (Foreground) -->
  <circle cx="256" cy="140" r="16" fill="none" stroke="white" stroke-width="6"/>
  <circle cx="256" cy="140" r="6" fill="white"/>
  
  <circle cx="190" cy="290" r="12" fill="none" stroke="#667eea" stroke-width="5"/>
  <circle cx="190" cy="290" r="4" fill="#667eea"/>
  
  <circle cx="322" cy="290" r="12" fill="none" stroke="#764ba2" stroke-width="5"/>
  <circle cx="322" cy="290" r="4" fill="#764ba2"/>
  
  <!-- Gradient Definitions -->
  <defs>
    <linearGradient id="bgGradient" x1="0%" y1="0%" x2="100%" y2="100%">
      <stop offset="0%" style="stop-color:#0f0f1e;stop-opacity:1" />
      <stop offset="50%" style="stop-color:#1a1a2e;stop-opacity:1" />
      <stop offset="100%" style="stop-color:#16213e;stop-opacity:1" />
    </linearGradient>
  </defs>
</svg>
