<svg width="32" height="32" viewBox="0 0 32 32" fill="none" xmlns="http://www.w3.org/2000/svg">
  <!-- Central Pillar -->
  <line x1="16" y1="8" x2="16" y2="22" stroke="url(#grad)" stroke-width="1.5" stroke-linecap="round"/>
  
  <!-- Balance Beam -->
  <line x1="10" y1="13" x2="22" y2="13" stroke="url(#grad)" stroke-width="1.5" stroke-linecap="round"/>
  
  <!-- Left Scale -->
  <circle cx="11.5" cy="13" r="1.5" fill="none" stroke="#667eea" stroke-width="1.5"/>
  <line x1="11.5" y1="14.5" x2="11.5" y2="17" stroke="#667eea" stroke-width="1.5" stroke-linecap="round"/>
  <path d="M 9 17 Q 11.5 19 14 17" stroke="#667eea" stroke-width="1.5" fill="none" stroke-linecap="round"/>
  <line x1="9" y1="17" x2="14" y2="17" stroke="#667eea" stroke-width="1.5" stroke-linecap="round"/>
  
  <!-- Right Scale -->
  <circle cx="20.5" cy="13" r="1.5" fill="none" stroke="#764ba2" stroke-width="1.5"/>
  <line x1="20.5" y1="14.5" x2="20.5" y2="17" stroke="#764ba2" stroke-width="1.5" stroke-linecap="round"/>
  <path d="M 18 17 Q 20.5 19 23 17" stroke="#764ba2" stroke-width="1.5" fill="none" stroke-linecap="round"/>
  <line x1="18" y1="17" x2="23" y2="17" stroke="#764ba2" stroke-width="1.5" stroke-linecap="round"/>
  
  <!-- Base -->
  <rect x="13" y="22" width="6" height="2" rx="1" fill="url(#grad)"/>
  
  <!-- Neural Nodes -->
  <circle cx="16" cy="8" r="2" fill="none" stroke="#667eea" stroke-width="1.5"/>
  <circle cx="16" cy="8" r="0.8" fill="#667eea"/>
  
  <circle cx="8" cy="16" r="1.5" fill="#667eea" opacity="0.6"/>
  <circle cx="24" cy="16" r="1.5" fill="#764ba2" opacity="0.6"/>
  
  <defs>
    <linearGradient id="grad" x1="0%" y1="0%" x2="100%" y2="100%">
      <stop offset="0%" style="stop-color:#667eea;stop-opacity:1" />
      <stop offset="100%" style="stop-color:#764ba2;stop-opacity:1" />
    </linearGradient>
  </defs>
</svg>
