<svg width="64" height="64" viewBox="0 0 64 64" fill="none" xmlns="http://www.w3.org/2000/svg">
  <!-- Central Pillar -->
  <line x1="32" y1="12" x2="32" y2="46" stroke="url(#gradient)" stroke-width="2" stroke-linecap="round"/>
  
  <!-- Balance Beam -->
  <line x1="18" y1="24" x2="46" y2="24" stroke="url(#gradient)" stroke-width="2" stroke-linecap="round"/>
  
  <!-- Left Scale -->
  <circle cx="23" cy="24" r="3" fill="none" stroke="#667eea" stroke-width="2"/>
  <line x1="23" y1="27" x2="23" y2="34" stroke="#667eea" stroke-width="2" stroke-linecap="round"/>
  <path d="M 16 34 Q 23 40 30 34" stroke="#667eea" stroke-width="2" fill="none" stroke-linecap="round" stroke-linejoin="round"/>
  <line x1="16" y1="34" x2="16" y2="37" stroke="#667eea" stroke-width="2" stroke-linecap="round"/>
  <line x1="30" y1="34" x2="30" y2="37" stroke="#667eea" stroke-width="2" stroke-linecap="round"/>
  <line x1="15" y1="37" x2="31" y2="37" stroke="#667eea" stroke-width="2" stroke-linecap="round"/>
  
  <!-- Right Scale -->
  <circle cx="41" cy="24" r="3" fill="none" stroke="#764ba2" stroke-width="2"/>
  <line x1="41" y1="27" x2="41" y2="34" stroke="#764ba2" stroke-width="2" stroke-linecap="round"/>
  <path d="M 34 34 Q 41 40 48 34" stroke="#764ba2" stroke-width="2" fill="none" stroke-linecap="round" stroke-linejoin="round"/>
  <line x1="34" y1="34" x2="34" y2="37" stroke="#764ba2" stroke-width="2" stroke-linecap="round"/>
  <line x1="48" y1="34" x2="48" y2="37" stroke="#764ba2" stroke-width="2" stroke-linecap="round"/>
  <line x1="33" y1="37" x2="49" y2="37" stroke="#764ba2" stroke-width="2" stroke-linecap="round"/>
  
  <!-- Base Platform -->
  <rect x="26" y="46" width="12" height="4" rx="2" fill="url(#gradient)"/>
  
  <!-- Top Node -->
  <circle cx="32" cy="12" r="4" fill="none" stroke="#667eea" stroke-width="2"/>
  <circle cx="32" cy="12" r="1.5" fill="#667eea"/>
  
  <defs>
    <linearGradient id="gradient" x1="0%" y1="0%" x2="100%" y2="100%">
      <stop offset="0%" style="stop-color:#667eea;stop-opacity:1" />
      <stop offset="100%" style="stop-color:#764ba2;stop-opacity:1" />
    </linearGradient>
  </defs>
</svg>
